<svg width="10" height="6" viewBox="0 0 10 6" fill="none" xmlns="http://www.w3.org/2000/svg">
<path d="M5.01229 5.91671C4.74709 5.91665 4.49278 5.8144 4.30529 5.63243L0.305288 1.75149C0.209778 1.66199 0.133596 1.55493 0.0811869 1.43655C0.0287779 1.31818 0.00119157 1.19087 3.7757e-05 1.06204C-0.00111606 0.933213 0.0241854 0.805453 0.0744663 0.686215C0.124747 0.566976 0.199 0.458648 0.292893 0.36755C0.386786 0.276452 0.498438 0.204409 0.621334 0.155625C0.74423 0.106841 0.87591 0.0822912 1.00869 0.0834107C1.14147 0.0845301 1.27269 0.111295 1.39469 0.162144C1.5167 0.212993 1.62704 0.286909 1.71929 0.379576L5.01229 3.57456L8.30529 0.379576C8.49389 0.20284 8.74649 0.105046 9.00869 0.107256C9.27088 0.109467 9.5217 0.211505 9.70711 0.391395C9.89251 0.571284 9.99768 0.814632 9.99996 1.06902C10.0022 1.32342 9.90145 1.5685 9.71929 1.75149L5.71929 5.63243C5.53179 5.8144 5.27748 5.91665 5.01229 5.91671Z" fill="#1F2A37"/>
</svg>
