<svg xmlns="http://www.w3.org/2000/svg" width="134" height="65" fill="none" xmlns:v="https://vecta.io/nano"><g fill="#231f20"><path d="M49.825 32.628l-.15.159-4.066 4.335-4.519-4.285-6.771-6.406 4.276-4.435 1.415 1.352.924.874 4.447 4.204 4.444 4.201z"/><path d="M70.885 10.421l-.025.028-21.035 22.178-.147.159-4.085 4.31-4.438-4.21 4.226-4.457 16.928-17.849L66.3 6.367l4.535 4.057.05-.003z"/></g><g fill="#5cd2dd"><path d="M71.872 32.225l-.15.159-4.066 4.335-7.227-6.852 4.229-4.457 2.767 2.617 4.448 4.198z"/><path d="M98.439 4.208L94.002 0 63.196 32.484l4.437 4.208L98.439 4.208z"/><path d="M67.428 28.027l-4.295 4.46-4.651-4.482 4.263-4.419 4.682 4.441zM45.001 6.464L40.725 10.9l4.436 4.277 4.277-4.436-4.436-4.277z"/></g><path d="M12.562 55.212h1.615v9.754h-.803c-1.027 0-2.027-.234-3.001-.706a7.09 7.09 0 0 1-2.514-1.999v2.708h-.803c-1.815 0-3.414-.643-4.8-1.933C.753 61.643 0 59.89 0 57.776v-2.564h1.615v2.564a5.35 5.35 0 0 0 1.43 3.71c.881.965 1.946 1.555 3.198 1.768v-8.042h1.69v2.564a5.35 5.35 0 0 0 1.43 3.71c.881.965 1.946 1.555 3.198 1.768v-8.042zm10.069 9.757c-1.381 0-2.561-.49-3.545-1.474s-1.474-2.164-1.474-3.545.49-2.561 1.474-3.545 2.164-1.474 3.545-1.474 2.561.49 3.545 1.474 1.474 2.164 1.474 3.545v.825h-5.019v-1.646h3.264c-.187-.737-.581-1.343-1.18-1.821-.606-.478-1.299-.715-2.08-.715a3.23 3.23 0 0 0-2.374.987 3.23 3.23 0 0 0-.987 2.374 3.23 3.23 0 0 0 .987 2.374 3.23 3.23 0 0 0 2.374.987v1.655h-.003z" fill="#231f20"/><path d="M35.92 52.438c-.962.006-1.746.344-2.352 1.009s-.912 1.524-.912 2.571v1.121h1.659v1.637h-1.659v6.193h-1.615v-8.951c0-1.502.459-2.742 1.377-3.723.918-.987 2.08-1.487 3.489-1.493l.013 1.636zm1.259 7.621a4.83 4.83 0 0 1 1.452-3.536 4.72 4.72 0 0 1 3.489-1.471v1.505a3.33 3.33 0 0 0-2.449 1.021 3.42 3.42 0 0 0-1.009 2.483v4.91h-1.484v-4.913zM48.882 65c-1.352 0-2.508-.49-3.47-1.474a4.86 4.86 0 0 1-1.443-3.545c0-1.38.481-2.561 1.443-3.545s2.118-1.474 3.47-1.474a4.66 4.66 0 0 1 3.467 1.474c.962.984 1.443 2.164 1.443 3.545v4.835h-1.627v-4.835c0-.925-.322-1.715-.965-2.374a3.12 3.12 0 0 0-2.321-.987 3.13 3.13 0 0 0-2.33.987c-.643.659-.965 1.449-.965 2.374s.322 1.715.965 2.374 1.421.987 2.33.987V65h.003zm21.81-9.907a4.7 4.7 0 0 1 3.479 1.468c.962.981 1.443 2.161 1.443 3.545v4.847h-1.637v-4.847a3.29 3.29 0 0 0-.953-2.374 3.17 3.17 0 0 0-2.33-.971 3.16 3.16 0 0 0-2.321.971c-.643.656-.965 1.446-.965 2.374v4.847h-1.627v-4.847c0-.928-.322-1.718-.965-2.374a3.16 3.16 0 0 0-2.321-.971 3.16 3.16 0 0 0-2.321.971c-.643.656-.965 1.446-.965 2.374v4.86h-1.627v-9.741h1.627v1.159c.94-.862 2.033-1.293 3.286-1.293.837 0 1.627.206 2.364.618.709.397 1.287.943 1.733 1.633.447-.693 1.031-1.237 1.746-1.633a4.72 4.72 0 0 1 2.352-.615zm13.167 9.876a4.83 4.83 0 0 1-3.545-1.474 4.83 4.83 0 0 1-1.474-3.545 4.83 4.83 0 0 1 1.474-3.545c.984-.984 2.164-1.474 3.545-1.474s2.561.49 3.545 1.474 1.474 2.164 1.474 3.545v.825h-5.019v-1.646h3.264a3.31 3.31 0 0 0-1.181-1.821c-.606-.478-1.299-.715-2.08-.715a3.23 3.23 0 0 0-2.374.987 3.23 3.23 0 0 0-.987 2.374 3.23 3.23 0 0 0 .987 2.374 3.23 3.23 0 0 0 2.374.987v1.655h-.003z" fill="#57c8ce"/><path d="M93.832 59.753c0 1.049.306 1.905.921 2.567s1.409.999 2.383 1.009l-.009 1.637c-1.43-.006-2.608-.503-3.532-1.484-.931-.984-1.399-2.227-1.399-3.729v-8.951h1.637v4.291h3.304v1.637h-3.304v3.023zm10.75 5.216c-1.381 0-2.561-.49-3.545-1.474s-1.474-2.164-1.474-3.545.49-2.561 1.474-3.545 2.164-1.474 3.545-1.474a4.83 4.83 0 0 1 3.545 1.474c.984.984 1.474 2.164 1.474 3.545v.825h-5.019v-1.646h3.264c-.188-.737-.581-1.343-1.181-1.821-.606-.478-1.299-.715-2.08-.715-.924 0-1.715.328-2.374.987a3.23 3.23 0 0 0-.987 2.374 3.23 3.23 0 0 0 .987 2.374c.659.659 1.45.987 2.374.987v1.655h-.003zm9.354-1.474a4.8 4.8 0 0 1-1.474-3.545c0-1.381.49-2.561 1.474-3.545a4.83 4.83 0 0 1 3.545-1.462c1.018 0 1.952.284 2.795.856l-.921 1.365c-.562-.384-1.19-.575-1.874-.575a3.23 3.23 0 0 0-2.374.987 3.23 3.23 0 0 0-.987 2.374 3.23 3.23 0 0 0 .987 2.374 3.23 3.23 0 0 0 2.374.987 3.28 3.28 0 0 0 1.952-.628l.965 1.355a4.91 4.91 0 0 1-2.917.931 4.82 4.82 0 0 1-3.545-1.474zm14.145-8.389c1.359 0 2.521.487 3.489 1.462a4.87 4.87 0 0 1 1.443 3.535v4.853h-1.637v-4.853c0-.921-.321-1.708-.965-2.361a3.15 3.15 0 0 0-2.33-.978 3.19 3.19 0 0 0-2.342.978c-.644.653-.965 1.44-.965 2.361v4.866h-1.637V50.811h1.637v5.578a4.75 4.75 0 0 1 3.307-1.284z" fill="#231f20"/><path d="M53.795 64.656h-1.627V65h1.627v-.343z" fill="#5cd2dd"/></svg>